<svg viewBox="0 0 400 400" xmlns="http://www.w3.org/2000/svg">
  <defs>
    <radialGradient id="elegantGoldenGlow" cx="50%" cy="50%" r="50%">
      <stop offset="0%" style="stop-color:#F5E050;stop-opacity:1" />
      <stop offset="30%" style="stop-color:#E6D200;stop-opacity:0.9" />
      <stop offset="70%" style="stop-color:#D4AF37;stop-opacity:0.8" />
      <stop offset="100%" style="stop-color:#B8860B;stop-opacity:0.9" />
    </radialGradient>
    <linearGradient id="elegantGoldenLetter" x1="0%" y1="0%" x2="100%" y2="100%">
      <stop offset="0%" style="stop-color:#F5E050" />
      <stop offset="50%" style="stop-color:#E6D200" />
      <stop offset="100%" style="stop-color:#D4AF37" />
    </linearGradient>
    <linearGradient id="elegantCircuitGold" x1="0%" y1="0%" x2="100%" y2="0%">
      <stop offset="0%" style="stop-color:#E6D200" />
      <stop offset="50%" style="stop-color:#F5E050" />
      <stop offset="100%" style="stop-color:#D4AF37" />
    </linearGradient>
    <filter id="elegantGlow" x="-50%" y="-50%" width="200%" height="200%">
      <feGaussianBlur stdDeviation="2" result="coloredBlur"/>
      <feMerge> 
        <feMergeNode in="coloredBlur"/>
        <feMergeNode in="SourceGraphic"/> 
      </feMerge>
    </filter>
  </defs>
  
  <!-- Elegant golden background -->
  <circle cx="200" cy="200" r="190" fill="#E6D200" stroke="url(#elegantGoldenGlow)" stroke-width="4"/>
  
  <!-- Refined outer ring -->
  <circle cx="200" cy="200" r="160" fill="none" stroke="#F5E050" stroke-width="2" opacity="0.8"/>
  
  <!-- Inner decorative ring -->
  <circle cx="200" cy="200" r="140" fill="none" stroke="#D4AF37" stroke-width="1.5" opacity="0.7"/>
  
  <!-- Elegant circuit pattern -->
  <g stroke="url(#elegantCircuitGold)" stroke-width="1.2" fill="none" opacity="0.8" filter="url(#elegantGlow)">
    <!-- Refined circuits -->
    <line x1="200" y1="85" x2="200" y2="65"/>
    <circle cx="200" cy="60" r="2.5" fill="#F5E050"/>
    
    <line x1="225" y1="95" x2="235" y2="80"/>
    <circle cx="240" cy="75" r="1.5" fill="#E6D200"/>
    
    <line x1="175" y1="95" x2="165" y2="80"/>
    <circle cx="160" cy="75" r="1.5" fill="#D4AF37"/>
    
    <!-- Side elegant elements -->
    <line x1="315" y1="200" x2="335" y2="200"/>
    <circle cx="340" cy="200" r="2.5" fill="#F5E050"/>
    
    <line x1="85" y1="200" x2="65" y2="200"/>
    <circle cx="60" cy="200" r="2.5" fill="#E6D200"/>
    
    <!-- Ornate decorative curves -->
    <path d="M 125 125 Q 140 105 155 125" stroke="#B8860B" stroke-width="1.5" fill="none"/>
    <path d="M 245 125 Q 260 105 275 125" stroke="#B8860B" stroke-width="1.5" fill="none"/>
    <path d="M 125 275 Q 140 295 155 275" stroke="#B8860B" stroke-width="1.5" fill="none"/>
    <path d="M 245 275 Q 260 295 275 275" stroke="#B8860B" stroke-width="1.5" fill="none"/>
    
    <!-- Bottom circuits -->
    <line x1="200" y1="315" x2="200" y2="335"/>
    <circle cx="200" cy="340" r="2.5" fill="#F5E050"/>
  </g>
  
  <!-- Elegant Letter A -->
  <g fill="url(#elegantGoldenLetter)" stroke="#B8860B" stroke-width="1.5" filter="url(#elegantGlow)">
    <path d="M 145 275 L 200 125 L 255 275 L 240 275 L 232 250 L 168 250 L 160 275 Z" />
    <path d="M 180 225 L 220 225 L 212 200 L 188 200 Z" fill="none" stroke="#B8860B" stroke-width="3"/>
    
    <!-- Refined circuit details -->
    <g stroke="#E6D200" stroke-width="0.8" fill="none" opacity="0.9">
      <line x1="165" y1="265" x2="172" y2="255"/>
      <line x1="235" y1="265" x2="228" y2="255"/>
      <line x1="190" y1="215" x2="195" y2="205"/>
      <line x1="210" y1="215" x2="205" y2="205"/>
      <line x1="200" y1="135" x2="200" y2="145"/>
      
      <!-- Elegant circuit nodes -->
      <circle cx="170" cy="260" r="1" fill="#F5E050"/>
      <circle cx="230" cy="260" r="1" fill="#E6D200"/>
      <circle cx="192" cy="210" r="1" fill="#D4AF37"/>
      <circle cx="208" cy="210" r="1" fill="#F5E050"/>
      <circle cx="200" cy="140" r="1" fill="#E6D200"/>
    </g>
  </g>
  
  <!-- Elegant brand name -->
  <text x="200" y="345" font-family="serif" font-size="22" font-weight="300" text-anchor="middle" fill="url(#elegantGoldenLetter)">AuraTech</text>
</svg>



